<?xml version="1.0" standalone="no"?>
<!DOCTYPE svg PUBLIC "-//W3C//DTD SVG 20010904//EN"
 "http://www.w3.org/TR/2001/REC-SVG-20010904/DTD/svg10.dtd">
<svg version="1.0" xmlns="http://www.w3.org/2000/svg"
 width="127.000000pt" height="135.000000pt" viewBox="0 0 127.000000 135.000000"
 preserveAspectRatio="xMidYMid meet">

<g transform="translate(0.000000,135.000000) scale(0.100000,-0.100000)"
fill="white" stroke="white">
<path d="M0 675 l0 -675 635 0 635 0 0 675 0 675 -635 0 -635 0 0 -675z m935
491 c161 -79 257 -262 228 -433 -20 -113 -87 -216 -186 -281 l-38 -25 28 -30
c15 -17 79 -81 140 -143 l113 -114 -194 0 -193 0 -347 351 -346 350 0 180 0
180 368 -3 367 -3 60 -29z m-756 -791 c2 -231 2 -235 -18 -235 -21 0 -21 4
-21 252 0 244 1 251 19 234 16 -15 18 -37 20 -251z m71 -37 c0 -191 -1 -198
-20 -198 -19 0 -20 7 -20 217 0 215 0 216 20 198 19 -17 20 -31 20 -217z m80
-40 c0 -151 -1 -158 -20 -158 -19 0 -20 7 -20 177 0 175 0 176 20 158 18 -17
20 -31 20 -177z m58 100 c8 -8 12 -53 12 -135 0 -116 -1 -123 -20 -123 -19 0
-20 7 -20 135 0 74 4 135 8 135 4 0 13 -5 20 -12z"/>
<path d="M567 794 l138 -135 57 4 c44 2 64 9 84 28 55 51 67 104 37 166 -31
67 -54 73 -266 73 l-188 0 138 -136z"/>
</g>
</svg>
